<?xml version="1.0" encoding="utf-8"?>
<!-- Generator: Adobe Illustrator 22.0.0, SVG Export Plug-In . SVG Version: 6.00 Build 0)  -->
<svg version="1.1" id="Isolation_Mode" xmlns="http://www.w3.org/2000/svg" xmlns:xlink="http://www.w3.org/1999/xlink" x="0px"
	 y="0px" viewBox="0 0 649.5 107.3" style="enable-background:new 0 0 649.5 107.3;" xml:space="preserve">
<style type="text/css">
	.st0{fill-rule:evenodd;clip-rule:evenodd;fill:#EC1C24;}
	.st1{fill-rule:evenodd;clip-rule:evenodd;fill:#00ADEE;}
	.st2{fill-rule:evenodd;clip-rule:evenodd;fill:#231F20;}
	.st3{fill:#231F20;}
</style>
<g>
	<path class="st0" d="M116.1,4c1.5-2.5,4.2-4,7.1-4h14.4c1.9,0,3,2,2.1,3.6l-31.6,53.2h51c2.5,0,4.1,2.6,2.8,4.8l-24.8,41.8h0
		c-1.4,2.4-4.1,3.9-7,3.9h0h-71c-1.9,0-3.1-2-2.1-3.6L116.1,4"/>
	<path class="st1" d="M24.8,107.3c-1.9,0-3-2-2.1-3.6l31.6-53.2h-51c-2.5,0-4.1-2.6-2.8-4.8L25.2,4c1.5-2.5,4.2-4,7.1-4h71
		c1.9,0,3,2,2.1,3.6l-59.2,99.8c-1.5,2.4-4.1,3.9-7,3.9h0H24.8"/>
	<path class="st2" d="M157.6,17.9V5h6.5c1.5,0,2.6,0.5,3.3,1.4c0.5,0.6,0.8,1.4,0.8,2.2c0,0.7-0.2,1.4-0.5,1.9
		c-0.3,0.6-0.8,0.9-1.5,1.1c0.6,0.3,1,0.6,1.2,0.9c0.3,0.5,0.4,1.3,0.4,2.4c0,0.9,0,1.5,0,1.8c0,0.3,0.2,0.6,0.5,0.7v0.4h-3
		c-0.1-0.3-0.2-0.7-0.2-1.1c0-0.4-0.1-0.9-0.1-1.6c0-1-0.1-1.6-0.3-1.9c-0.3-0.4-0.9-0.5-1.8-0.5h-2.8v5H157.6 M160.3,10.7h3.2
		c0.7,0,1.2-0.2,1.6-0.4c0.3-0.3,0.5-0.7,0.5-1.3c0-0.4-0.1-0.8-0.4-1.1c-0.3-0.4-0.8-0.6-1.5-0.6h-3.3V10.7z M162.8,0.1
		c-6.4,0-11.6,5.2-11.6,11.6c0,6.4,5.2,11.6,11.6,11.6c6.4,0,11.6-5.2,11.6-11.6C174.3,5.3,169.1,0.1,162.8,0.1 M162.8,1.5
		c-5.6,0-10.2,4.6-10.2,10.2c0,5.6,4.6,10.2,10.2,10.2c5.6,0,10.2-4.6,10.2-10.2C172.9,6.1,168.4,1.5,162.8,1.5"/>
	<path class="st3" d="M202,40.6h11l-0.7,4.1c-0.1,0.6-0.4,1-0.8,1.3c-0.4,0.3-1,0.4-1.6,0.4h-6.4c-2.8,0-4.7,2-5.8,6
		c-0.6,2-0.9,4.1-0.9,6.3c0,1.7,0.4,2.9,1.3,3.5c0.6,0.4,1.5,0.6,2.8,0.6h1.1c3,0,5-0.2,6-0.5c1-0.3,1.7-0.9,2-1.7l-1.4,6
		c-0.3,1.4-1.1,2.2-2.5,2.2h-9.3c-3.2,0-5.4-0.9-6.5-2.8c-0.6-1.1-1-2.6-1-4.6c0-2,0.1-3.9,0.4-5.7c0.5-4,1.6-7.3,3.1-9.8
		C195.1,42.3,198.1,40.6,202,40.6"/>
	<path class="st3" d="M227.9,40.5c3,0,5.3,0.4,6.9,1.3c2.2,1.2,3.3,3.1,3.3,5.9c0,7.8-1.6,13.4-4.8,16.8c-2.5,2.7-6.2,4.1-10.9,4.1
		c-3.1,0-5.4-0.7-7-2c-1.7-1.3-2.5-3.2-2.5-5.7c0-0.5,0-0.8,0-1c0.7-7.8,2.6-13.2,5.7-16.3C220.9,41.5,223.9,40.5,227.9,40.5
		 M227.9,45.3c-2.4,0-4.1,0.7-5,2.2c-1.1,1.7-2.3,5.9-3.6,12.5c0,0.1-0.1,0.3-0.1,0.5c0,1,0.5,1.8,1.4,2.4c0.9,0.7,2,1,3,1
		c2.3,0,4.1-1.5,5.5-4.6c1.6-3.4,2.3-6.8,2.3-10.2c0-1.4-0.3-2.4-0.9-3C230.1,45.6,229.2,45.3,227.9,45.3 M231.6,37.9l-1.4-3.5
		l-3.6,3.5h-4.5l4.4-6h8.6l0.7,6H231.6z"/>
	<path class="st3" d="M243.9,42.7c0-0.5-0.1-0.9-0.2-1.3c-0.1-0.4-0.4-0.7-0.8-0.9h6.7c0.4,0,0.9,0.2,1.3,0.5
		c0.4,0.4,0.6,0.8,0.6,1.2l-0.2,1.8l1.4-2.2c0.3-0.5,0.7-0.8,1.1-1.1c0.4-0.2,0.9-0.3,1.4-0.3h5.2c1.4,0,2.5,0.4,3.2,1.2
		c0.7,0.8,1.1,1.8,1.1,3.2c0,0.5-0.1,1.1-0.3,1.9l-4.6,19.5c0,1.3,0.4,2.1,1.3,2.5h-7.5c-0.4,0-0.7-0.2-0.9-0.7
		c-0.1-0.3-0.2-0.5-0.2-0.7c0-0.1,0-0.3,0.1-0.4l4.1-18.2c0-0.1,0.1-0.4,0.1-0.6c0-0.6-0.3-1.1-0.8-1.4c-0.5-0.3-1.3-0.4-2.3-0.4
		c-1,0-1.9,0.1-2.4,0.3c-0.6,0.2-1,0.8-1.2,1.8l-4.6,18.6c0,0.8,0.4,1.4,1.3,1.7c0,0.1,0.1,0.1,0.2,0.2h-7.2c-0.4,0-0.8-0.1-1.1-0.2
		c-0.4-0.2-0.7-0.7-0.7-1.2v-0.3L243.9,42.7"/>
	<path class="st3" d="M279.4,66.8l1.4-5.8c-0.8,1.7-1.6,3.1-2.3,4c-1,1.2-2.2,1.9-3.5,1.9h-4.7c-1.8,0-3.1-0.6-3.9-1.8
		c-0.8-1.2-1.2-2.9-1.2-5.2c0-5.7,1.4-10.3,4.1-13.9c2.7-3.6,6.4-5.4,11.2-5.4h10c0.7,0,1.2,0.2,1.5,0.6c0.3,0.4,0.4,0.8,0.4,1.4
		c0,0.3,0,0.7-0.1,1l-6,24.9c-0.7,2.9-2.1,4.8-4.3,5.9c-1.9,0.9-4.8,1.4-8.7,1.4c-4.1,0-6.9-0.2-8.5-0.7c-1.2-0.3-1.7-0.9-1.7-1.5
		v-0.3c0.1-0.1,0.1-0.2,0.1-0.2l1-5.2c0.2,0.8,0.6,1.3,1.1,1.6c0.5,0.4,1.5,0.6,2.8,0.6h7.7c0.9,0,1.6-0.3,2.2-0.9
		C278.7,68.5,279.1,67.7,279.4,66.8 M281.1,59.7l3.2-13.3h-2.6c-0.7,0-1.4,0-2.1,0c-2,0-3.7,1-5,3.1c-1.3,2.1-2,4.6-2,7.6
		c0,1.6,0.4,2.7,1.3,3.5c0.6,0.5,1.4,0.8,2.4,0.8c0.4,0,0.8,0,1-0.1c0.7-0.2,1.3-0.4,1.6-0.5C280,60.3,280.7,60,281.1,59.7"/>
	<path class="st3" d="M306.1,42.1c0-0.4-0.1-0.7-0.3-1.1c-0.2-0.3-0.5-0.5-0.8-0.5h6.6c0.2,0,0.3,0.1,0.5,0.3
		c0.2,0.2,0.3,0.4,0.3,0.6l0.7,18.5l9.9-17.7c0.2-0.5,0.4-0.8,0.4-1.1c0-0.4-0.3-0.7-0.8-0.7h6.2c0.4,0,0.7,0.1,0.9,0.3
		c0.2,0.2,0.3,0.4,0.3,0.6c0,0.2-0.1,0.3-0.3,0.5l-15.4,26.8h-5.7c-0.5,0-0.9-0.2-1.2-0.6c-0.3-0.4-0.5-0.8-0.5-1.3L306.1,42.1"/>
	<path class="st3" d="M334,43.5c0-0.7-0.1-1.3-0.3-1.8c-0.2-0.5-0.5-0.8-1.1-1h7.2c0.3,0,0.6,0.2,0.9,0.6c0.2,0.3,0.3,0.6,0.3,0.9
		v0.2l-5.3,23.8c0,0.9,0.1,1.5,0.2,1.9c0.1,0.4,0.5,0.6,1,0.6h-6.7c-0.4,0-0.7-0.2-1-0.5c-0.3-0.3-0.5-0.8-0.5-1.4L334,43.5
		 M334.8,38l0.7-4h5.2c0.7,0,1.2,0.1,1.4,0.4c0.1,0.2,0.2,0.4,0.3,0.7c0,0.1,0,0.2,0,0.3l-0.8,3.7h-5c-0.6,0-1.1-0.1-1.3-0.3
		C334.9,38.7,334.8,38.4,334.8,38"/>
	<path class="st3" d="M364.3,55.5h-14.1c-0.1,0.8-0.3,1.5-0.4,2.3c-0.1,0.8-0.2,1.4-0.2,1.8c0,1,0.2,1.6,0.7,2
		c0.5,0.4,1.3,0.6,2.4,0.6h4.9c1.5,0,2.5,0,2.9-0.1c1.4-0.2,2.4-0.9,3.2-2.2l-1.6,6.6c-0.1,0.6-0.6,1.1-1.3,1.5
		c-0.7,0.4-1.5,0.7-2.3,0.7h-9c-2.3,0-4-0.4-5-1.3c-1.3-1-1.9-2.7-1.9-5.1c0-0.6,0-1.1,0-1.4c0.7-8.3,2-13.8,3.8-16.4
		c1.8-2.6,5.4-3.9,10.7-3.9c4.3,0,7.1,0.4,8.4,1.3c1.3,0.9,1.9,2.8,1.9,5.5c0,1.7-0.2,3.5-0.7,5.4c-0.3,1-0.5,1.7-0.6,2.1
		C366.3,55.3,365.6,55.5,364.3,55.5 M348.6,79.2l1.4-6.5h7.7l-1.4,6.5H348.6z M357.2,45.5c-1.8,0-3.1,0.5-4,1.4
		c-0.6,0.7-1.3,2.1-1.9,4.1h9.6c0.2-0.9,0.4-1.7,0.4-2.3c0-1-0.3-1.8-0.8-2.3C359.8,45.8,358.7,45.5,357.2,45.5 M361.1,37.9
		l-1.4-3.5l-3.6,3.5h-4.5l4.4-6h8.6l0.7,6H361.1z"/>
	<path class="st3" d="M380.9,40.6h11l-0.7,4.1c-0.1,0.6-0.4,1-0.8,1.3c-0.4,0.3-1,0.4-1.6,0.4h-6.4c-2.8,0-4.7,2-5.8,6
		c-0.6,2-0.9,4.1-0.9,6.3c0,1.7,0.4,2.9,1.3,3.5c0.6,0.4,1.5,0.6,2.8,0.6h1.1c3,0,5-0.2,6-0.5c1-0.3,1.7-0.9,2-1.7l-1.4,6
		c-0.3,1.4-1.1,2.2-2.5,2.2h-9.3c-3.2,0-5.4-0.9-6.5-2.8c-0.6-1.1-1-2.6-1-4.6c0-2,0.1-3.9,0.4-5.7c0.5-4,1.6-7.3,3.1-9.8
		C374,42.3,377,40.6,380.9,40.6"/>
	<path class="st3" d="M408.6,35.7c0-0.9-0.3-1.5-0.8-1.9h7.7c0.2,0.1,0.3,0.1,0.4,0.2c0.2,0.2,0.3,0.4,0.3,0.7c0,0.1,0,0.3-0.1,0.4
		l-2.1,9.4l2-3.1c0.1-0.1,0.4-0.3,0.9-0.6c0.5-0.2,0.8-0.4,1-0.4h6.2c1.3,0,2.3,0.4,3.2,1.2c0.8,0.9,1.3,1.7,1.3,2.7
		c0,0.1,0,0.3-0.1,0.6L423.7,67c0,0.1-0.1,0.3-0.1,0.5c0,0.4,0.2,0.7,0.5,0.9c0.3,0.2,0.6,0.3,1,0.3h-7c-0.3,0-0.7-0.2-1-0.6
		c-0.3-0.3-0.4-0.6-0.4-0.9c0-0.1,0-0.2,0-0.3l3.9-17.1c0.1-0.3,0.1-0.6,0.1-0.9c0-0.9-0.2-1.6-0.7-2.1c-0.6-0.7-1.4-1-2.5-1
		c-1.3,0-2.2,0.1-2.7,0.4c-0.6,0.3-1.1,0.7-1.6,1.3l-4.8,19.4c0,1.2,0.5,1.7,1.6,1.7h-7.2c-0.4,0-0.7-0.2-1-0.5
		c-0.2-0.2-0.2-0.5-0.2-0.8c0-0.1,0-0.3,0-0.5L408.6,35.7"/>
	<path class="st3" d="M443.7,67l1-4.2l-2.5,4.2c-0.2,0.4-0.5,0.8-1,1.1c-0.5,0.4-0.9,0.6-1.3,0.6h-5.7c-1.3,0-2.3-0.5-3-1.4
		c-0.8-0.9-1.2-2.3-1.2-4.2c0-2,0.5-4.5,1.5-7.6c1-3,1.7-4.5,2.2-4.7c0.2-0.5,0.8-0.9,1.8-1.1c1-0.2,2.1-0.4,3.2-0.4h7.7
		c0.9,0,1.4,0,1.5-0.2c0.4-0.2,0.6-0.9,0.6-2c0-1.2-0.6-1.8-1.7-1.8h-7.9c-0.8,0-1.4-0.2-1.7-0.6c-0.2-0.3-0.4-0.6-0.4-1v-0.2
		l0.5-3.2h13.8c1.6,0,2.9,0.4,3.7,1.1c0.8,0.8,1.2,1.7,1.2,2.9c0,0.6-0.1,1.2-0.3,1.7l-3.9,18.2c-0.2,0.9-0.4,1.6-0.4,2.2
		c0,0.8,0.2,1.4,0.6,1.7c0.3,0.2,0.5,0.4,0.8,0.4H445c-0.4,0-0.7-0.2-1-0.6c-0.3-0.3-0.4-0.6-0.4-0.8
		C443.6,67.2,443.6,67.1,443.7,67 M438.4,62.1h6.3l1.8-7.6h-5.4c-1.4,0-2.5,0.7-3.3,2.1c-0.6,1.1-0.9,2.4-0.9,3.7
		c0,0.5,0.1,1,0.4,1.3C437.7,62,438,62.1,438.4,62.1"/>
	<path class="st3" d="M461.8,42.7c0-0.5-0.1-0.9-0.2-1.3c-0.1-0.4-0.4-0.7-0.8-0.9h6.7c0.4,0,0.9,0.2,1.3,0.5
		c0.4,0.4,0.6,0.8,0.6,1.2l-0.2,1.8l1.4-2.2c0.3-0.5,0.7-0.8,1.1-1.1c0.4-0.2,0.9-0.3,1.4-0.3h5.2c1.4,0,2.5,0.4,3.2,1.2
		c0.7,0.8,1.1,1.8,1.1,3.2c0,0.5-0.1,1.1-0.2,1.9l-4.6,19.5c0,1.3,0.4,2.1,1.3,2.5h-7.5c-0.4,0-0.7-0.2-0.9-0.7
		c-0.1-0.3-0.2-0.5-0.2-0.7c0-0.1,0-0.3,0.1-0.4l4.1-18.2c0-0.1,0-0.4,0-0.6c0-0.6-0.3-1.1-0.8-1.4c-0.5-0.3-1.3-0.4-2.3-0.4
		c-1.1,0-1.9,0.1-2.4,0.3c-0.6,0.2-1,0.8-1.2,1.8l-4.6,18.6c0,0.8,0.4,1.4,1.3,1.7c0,0.1,0.1,0.1,0.2,0.2h-7.2
		c-0.4,0-0.8-0.1-1.1-0.2c-0.4-0.2-0.7-0.7-0.7-1.2v-0.3L461.8,42.7"/>
	<path class="st3" d="M489.5,35.7c0-0.9-0.3-1.5-0.8-1.9h7.7c0.2,0.1,0.3,0.1,0.4,0.2c0.2,0.2,0.3,0.4,0.3,0.7c0,0.1,0,0.3-0.1,0.4
		l-2.1,9.4l2-3.1c0.1-0.1,0.4-0.3,0.9-0.6c0.5-0.2,0.8-0.4,1-0.4h6.2c1.3,0,2.3,0.4,3.2,1.2c0.8,0.9,1.3,1.7,1.3,2.7
		c0,0.1,0,0.3-0.1,0.6L504.6,67c0,0.1,0,0.3,0,0.5c0,0.4,0.2,0.7,0.5,0.9c0.3,0.2,0.6,0.3,1,0.3h-7c-0.3,0-0.7-0.2-1-0.6
		c-0.3-0.3-0.4-0.6-0.4-0.9c0-0.1,0-0.2,0.1-0.3l3.9-17.1c0.1-0.3,0.1-0.6,0.1-0.9c0-0.9-0.2-1.6-0.7-2.1c-0.6-0.7-1.4-1-2.5-1
		c-1.3,0-2.2,0.1-2.7,0.4c-0.6,0.3-1.1,0.7-1.6,1.3l-4.8,19.4c0,1.2,0.5,1.7,1.6,1.7h-7.2c-0.4,0-0.7-0.2-1-0.5
		c-0.2-0.2-0.2-0.5-0.2-0.8c0-0.1,0-0.3,0-0.5L489.5,35.7"/>
	<path class="st3" d="M526.1,46.4h-2.3l1-4.9c1.9,0,3.7-0.6,5.3-1.7c1.6-1.1,2.8-2.6,3.4-4.4h2.4l-1.1,5.2h6.5l-0.3,4.4
		c0,0.5-0.2,0.9-0.7,1.1c-0.4,0.2-1,0.4-1.7,0.4H535c-1.1,0-1.7,0.5-1.9,1.5l-3,13.3c0,0.1,0,0.3,0,0.5c0,1,0.4,1.5,1.2,1.5h4.7
		c0.4,0,0.9-0.2,1.4-0.7c0.5-0.5,0.8-1,0.9-1.5l-1.5,6.4c-0.1,0.4-0.4,0.7-0.8,1c-0.4,0.3-0.9,0.5-1.5,0.5h-11.1
		c-0.5,0-1-0.2-1.4-0.7c-0.3-0.3-0.4-0.7-0.4-1.1c0-0.1,0-0.3,0.1-0.4L526.1,46.4"/>
	<path class="st3" d="M548.1,35.7c0-0.9-0.3-1.5-0.8-1.9h7.7c0.2,0.1,0.3,0.1,0.4,0.2c0.2,0.2,0.3,0.4,0.3,0.7c0,0.1,0,0.3,0,0.4
		l-2.1,9.4l2-3.1c0.1-0.1,0.4-0.3,0.9-0.6c0.5-0.2,0.8-0.4,1-0.4h6.2c1.3,0,2.3,0.4,3.2,1.2c0.8,0.9,1.3,1.7,1.3,2.7
		c0,0.1,0,0.3-0.1,0.6L563.2,67c0,0.1-0.1,0.3-0.1,0.5c0,0.4,0.2,0.7,0.5,0.9c0.3,0.2,0.6,0.3,1,0.3h-7c-0.3,0-0.7-0.2-1-0.6
		c-0.3-0.3-0.4-0.6-0.4-0.9c0-0.1,0-0.2,0-0.3l3.9-17.1c0.1-0.3,0.1-0.6,0.1-0.9c0-0.9-0.2-1.6-0.7-2.1c-0.6-0.7-1.4-1-2.5-1
		c-1.3,0-2.2,0.1-2.7,0.4c-0.6,0.3-1.1,0.7-1.6,1.3L548,66.9c0,1.2,0.5,1.7,1.6,1.7h-7.2c-0.4,0-0.7-0.2-1-0.5
		c-0.2-0.2-0.2-0.5-0.2-0.8c0-0.1,0-0.3,0-0.5L548.1,35.7"/>
	<path class="st3" d="M584.8,40.5c3,0,5.3,0.4,6.9,1.3c2.2,1.2,3.3,3.1,3.3,5.9c0,7.8-1.6,13.4-4.8,16.8c-2.5,2.7-6.2,4.1-10.9,4.1
		c-3.1,0-5.4-0.7-7-2c-1.7-1.3-2.5-3.2-2.5-5.7c0-0.5,0-0.8,0-1c0.7-7.8,2.6-13.2,5.7-16.3C577.8,41.5,580.9,40.5,584.8,40.5
		 M584.8,45.3c-2.4,0-4.1,0.7-5,2.2c-1.1,1.7-2.3,5.9-3.6,12.5c0,0.1,0,0.3,0,0.5c0,1,0.5,1.8,1.4,2.4c0.9,0.7,2,1,3,1
		c2.3,0,4.1-1.5,5.5-4.6c1.6-3.4,2.3-6.8,2.3-10.2c0-1.4-0.3-2.4-0.9-3C587.1,45.6,586.1,45.3,584.8,45.3 M588.6,37.9l-1.4-3.5
		l-3.6,3.5h-4.5l4.4-6h8.6l0.7,6H588.6z"/>
	<path class="st3" d="M600.8,42.7c0-0.5-0.1-0.9-0.2-1.3c-0.1-0.4-0.4-0.7-0.8-0.9h6.7c0.4,0,0.9,0.2,1.3,0.5
		c0.4,0.4,0.6,0.8,0.6,1.2l-0.2,1.8l1.4-2.2c0.3-0.5,0.7-0.8,1.1-1.1c0.4-0.2,0.9-0.3,1.4-0.3h5.2c1.4,0,2.5,0.4,3.2,1.2
		c0.7,0.8,1.1,1.8,1.1,3.2c0,0.5-0.1,1.1-0.3,1.9l-4.6,19.5c0,1.3,0.4,2.1,1.3,2.5h-7.5c-0.4,0-0.7-0.2-0.9-0.7
		c-0.1-0.3-0.2-0.5-0.2-0.7c0-0.1,0-0.3,0.1-0.4l4.1-18.2c0-0.1,0.1-0.4,0.1-0.6c0-0.6-0.3-1.1-0.8-1.4c-0.5-0.3-1.3-0.4-2.3-0.4
		c-1,0-1.9,0.1-2.4,0.3c-0.6,0.2-1,0.8-1.2,1.8l-4.6,18.6c0,0.8,0.4,1.4,1.3,1.7c0,0.1,0.1,0.1,0.2,0.2h-7.2c-0.4,0-0.8-0.1-1.1-0.2
		c-0.4-0.2-0.7-0.7-0.7-1.2v-0.3L600.8,42.7"/>
	<path class="st3" d="M636.3,66.8l1.4-5.8c-0.8,1.7-1.6,3.1-2.3,4c-1,1.2-2.2,1.9-3.5,1.9h-4.7c-1.8,0-3.1-0.6-3.9-1.8
		c-0.8-1.2-1.2-2.9-1.2-5.2c0-5.7,1.4-10.3,4.1-13.9c2.7-3.6,6.4-5.4,11.2-5.4h10c0.7,0,1.2,0.2,1.5,0.6c0.3,0.4,0.4,0.8,0.4,1.4
		c0,0.3,0,0.7-0.1,1l-6,24.9c-0.7,2.9-2.1,4.8-4.3,5.9c-1.9,0.9-4.8,1.4-8.7,1.4c-4.1,0-6.9-0.2-8.5-0.7c-1.2-0.3-1.7-0.9-1.7-1.5
		v-0.3c0.1-0.1,0.1-0.2,0.1-0.2l1-5.2c0.2,0.8,0.6,1.3,1.1,1.6c0.5,0.4,1.5,0.6,2.8,0.6h7.7c0.9,0,1.6-0.3,2.2-0.9
		C635.7,68.5,636.1,67.7,636.3,66.8 M638.1,59.7l3.2-13.3h-2.6c-0.7,0-1.4,0-2.1,0c-2,0-3.7,1-5,3.1c-1.3,2.1-2,4.6-2,7.6
		c0,1.6,0.4,2.7,1.3,3.5c0.6,0.5,1.4,0.8,2.4,0.8c0.4,0,0.8,0,1-0.1c0.7-0.2,1.3-0.4,1.6-0.5C637,60.3,637.7,60,638.1,59.7"/>
</g>
</svg>
